<svg>

	<symbol id="i-refresh" viewBox="0 0 20 20" xmlns="http://www.w3.org/2000/svg">
		<path fill-rule="evenodd" clip-rule="evenodd" d="M10 2C12.3936 2 14.4465 3.0787 15.8069 5H12V7H19V0H17V3.27035C15.2749 1.18251 12.8042 0 10 0C4.47715 0 0 4.47715 0 10H2C2 5.58172 5.58172 2 10 2ZM10 18C7.60638 18 5.55354 16.9213 4.19306 15H8V13H1V20H3V16.7297C4.72511 18.8175 7.19577 20 10 20C15.5228 20 20 15.5228 20 10H18C18 14.4183 14.4183 18 10 18Z"/>
	</symbol>
	
	<symbol id="i-user" viewBox="0 0 18 22" xmlns="http://www.w3.org/2000/svg">
		<path fill-rule="evenodd" clip-rule="evenodd" d="M9.00001 1.90001C7.38465 1.90001 5.90001 3.4092 5.90001 5.50001C5.90001 7.59081 7.38465 9.10001 9.00001 9.10001C10.6154 9.10001 12.1 7.59081 12.1 5.50001C12.1 3.4092 10.6154 1.90001 9.00001 1.90001ZM4.10001 5.50001C4.10001 2.62025 6.19708 0.100006 9.00001 0.100006C11.8029 0.100006 13.9 2.62025 13.9 5.50001C13.9 8.37976 11.8029 10.9 9.00001 10.9C6.19708 10.9 4.10001 8.37976 4.10001 5.50001ZM2.33658 17.0089C2.00831 17.427 1.90001 17.7674 1.90001 18C1.90001 18.694 2.09078 19.0172 2.2935 19.2018C2.52978 19.417 2.93605 19.585 3.61164 19.6695C4.2795 19.7529 5.08715 19.7414 6.02504 19.7023C6.24642 19.6931 6.47515 19.6824 6.70927 19.6713C7.4402 19.6369 8.22368 19.6 9.00001 19.6C9.77633 19.6 10.5598 19.6369 11.2907 19.6713C11.5249 19.6824 11.7536 19.6931 11.975 19.7023C12.9129 19.7414 13.7205 19.7529 14.3884 19.6695C15.064 19.585 15.4702 19.417 15.7065 19.2018C15.9092 19.0172 16.1 18.694 16.1 18C16.1 17.7674 15.9917 17.427 15.6634 17.0089C15.3403 16.5974 14.8447 16.1651 14.1913 15.7703C12.8852 14.9808 11.0464 14.4 9.00001 14.4C6.95359 14.4 5.11478 14.9808 3.80869 15.7703C3.15536 16.1651 2.65969 16.5974 2.33658 17.0089ZM2.87762 14.2298C4.46696 13.2692 6.62814 12.6 9.00001 12.6C11.3719 12.6 13.5331 13.2692 15.1224 14.2298C15.9168 14.7099 16.5927 15.2777 17.0792 15.8974C17.5606 16.5105 17.9 17.2326 17.9 18C17.9 19.056 17.5908 19.9204 16.9185 20.5326C16.2798 21.1143 15.4361 21.3525 14.6116 21.4556C13.7795 21.5596 12.8372 21.5398 11.9 21.5008C11.6581 21.4907 11.4161 21.4793 11.1739 21.4679C10.4528 21.434 9.7299 21.4 9.00001 21.4C8.27011 21.4 7.54719 21.434 6.82607 21.4679C6.5839 21.4793 6.34193 21.4907 6.09997 21.5008C5.16286 21.5398 4.22051 21.5596 3.38837 21.4556C2.56396 21.3525 1.72023 21.1143 1.08151 20.5326C0.409234 19.9204 0.100006 19.056 0.100006 18C0.100006 17.2326 0.439414 16.5105 0.920791 15.8974C1.40732 15.2777 2.08323 14.7099 2.87762 14.2298Z"/>
	</symbol>
	
	<symbol id="i-asc" viewBox="0 0 18 14" xmlns="http://www.w3.org/2000/svg">
		<path d="M0 0H18V2H0V0Z"/>
		<path d="M0 6H12V8H0V6Z"/>
		<path d="M0 12H6V14H0V12Z"/>
	</symbol>

	
	<symbol id="i-desc" viewBox="0 0 18 14" xmlns="http://www.w3.org/2000/svg">
		<path d="M0 14H18V12H0V14Z"/>
		<path d="M0 8H12V6H0V8Z"/>
		<path d="M0 2H6V0H0V2Z"/>
	</symbol>




	<symbol id="i-close" viewBox="0 0 9 9" xmlns="http://www.w3.org/2000/svg">
		<path d="M0.889137 7.96014L4.07112 4.77816L0.889137 1.59618C0.693875 1.40092 0.693875 1.08434 0.889138 0.889076C1.0844 0.693814 1.40098 0.693814 1.59624 0.889076L4.77822 4.07106L7.9602 0.889077C8.15547 0.693815 8.47205 0.693815 8.66731 0.889076C8.86257 1.08434 8.86257 1.40092 8.66731 1.59618L5.48533 4.77816L8.66731 7.96014C8.86257 8.15541 8.86257 8.47199 8.66731 8.66725C8.47205 8.86251 8.15547 8.86251 7.96021 8.66725L4.77822 5.48527L1.59624 8.66725C1.40098 8.86251 1.0844 8.86251 0.889137 8.66725C0.693875 8.47199 0.693875 8.15541 0.889137 7.96014Z"/>
	</symbol>

	<symbol id="i-up" viewBox="0 0 512 512" xmlns="http://www.w3.org/2000/svg">
		<path d="m184.5,460.1h137.3v-223.1c0-11.3 9.1-20.4 20.3-20.4h69.3l-155.8-156.5-155.7,156.5h64.2c11.2,0 20.3,9.1 20.3,20.4v223.1h0.1zm157.5,40.9h-177.9c-11.2,0-20.3-9.1-20.3-20.4v-223.1h-92.9c-19.9,0-25.2-23.9-14.4-34.9l204.8-205.9c7.6-7.7 21.1-7.7 28.7,1.06581e-14l204.7,205.9c12.6,12.7 5.4,34.9-14.4,34.9h-98v223.1c0.1,11.3-9,20.4-20.3,20.4z"/>
	</symbol>

	<symbol id="i-success" viewBox="0 0 12 8" xmlns="http://www.w3.org/2000/svg">
		<path d="M4.17838 6.7455L10.5703 0.353554C10.7656 0.158292 11.0822 0.158292 11.2774 0.353554C11.4727 0.548817 11.4727 0.865399 11.2774 1.06066L4.91256 7.42553C4.52418 7.8139 3.89527 7.81635 3.50388 7.43102L0.357686 4.33349C0.160594 4.13944 0.159357 3.82197 0.354931 3.6264C0.549433 3.4319 0.864782 3.4319 1.05928 3.6264L4.17838 6.7455Z"/>
	</symbol>

	<symbol id="i-exit" viewBox="0 0 22 19" xmlns="http://www.w3.org/2000/svg">
		<path fill-rule="evenodd" clip-rule="evenodd" d="M6.79282 10.2072L17.3786 10.2072L14.0857 13.5L15.4999 14.9143L21.207 9.20715L15.4999 3.50005L14.0857 4.91426L17.3786 8.20715L6.79282 8.20715L6.79282 10.2072ZM2.79282 18.2072L11.7928 18.2072L11.7928 16.2072L2.79282 16.2072L2.79282 2.20715L11.7928 2.20715L11.7928 0.207153L2.79282 0.207153C1.68825 0.207152 0.792818 1.10258 0.792818 2.20715L0.792817 16.2072C0.792817 17.3117 1.68825 18.2072 2.79282 18.2072Z"/>
	</symbol>


	<symbol id="i-chevron" viewBox="0 0 12 12" xmlns="http://www.w3.org/2000/svg">
		<path fill-rule="evenodd" clip-rule="evenodd" d="M6.01041 10.9602C5.81515 11.1554 5.49857 11.1554 5.30331 10.9602V10.9602C5.10804 10.7649 5.10804 10.4483 5.30331 10.2531L9.8995 5.65687L5.30331 1.06067C5.10804 0.86541 5.10804 0.548828 5.30331 0.353566V0.353566C5.49857 0.158304 5.81515 0.158304 6.01041 0.353566L10.6066 4.94976C10.9971 5.34028 10.9971 5.97345 10.6066 6.36397L6.01041 10.9602Z"/>
	</symbol>

	<symbol id="i-arrow" viewBox="0 0 19 18" xmlns="http://www.w3.org/2000/svg">
		<path fill-rule="evenodd" clip-rule="evenodd" d="M14.5858 9.70711H0V7.70711H14.5858L8.29289 1.41421L9.70711 0L18.4142 8.70711L9.70711 17.4142L8.29289 16L14.5858 9.70711Z" />
	</symbol>

	<svg id="i-search" viewBox="0 0 18 18" xmlns="http://www.w3.org/2000/svg">
		<path fill-rule="evenodd" clip-rule="evenodd" d="M7.50001 1.90001C4.40721 1.90001 1.90001 4.40721 1.90001 7.50001C1.90001 10.5928 4.40721 13.1 7.50001 13.1C9.04665 13.1 10.4454 12.4742 11.4598 11.4598C12.4742 10.4454 13.1 9.04665 13.1 7.50001C13.1 4.40721 10.5928 1.90001 7.50001 1.90001ZM0.100006 7.50001C0.100006 3.4131 3.4131 0.100006 7.50001 0.100006C11.5869 0.100006 14.9 3.4131 14.9 7.50001C14.9 9.21874 14.3132 10.8016 13.3303 12.0575L17.6364 16.3636C17.9879 16.7151 17.9879 17.2849 17.6364 17.6364C17.2849 17.9879 16.7151 17.9879 16.3636 17.6364L12.0575 13.3303C10.8016 14.3132 9.21874 14.9 7.50001 14.9C3.4131 14.9 0.100006 11.5869 0.100006 7.50001Z"/>
	</svg>
	
	<symbol id="i-trash" viewBox="-32 0 384 384" xmlns="http://www.w3.org/2000/svg">
		<path d="m72 384h176c17.648438 0 32-14.351562 32-32v-192h24c8.832031 0 16-7.167969 16-16v-48c0-17.648438-14.351562-32-32-32h-64v-32c0-17.648438-14.351562-32-32-32h-64c-17.648438 0-32 14.351562-32 32v32h-64c-17.648438 0-32 14.351562-32 32v48c0 8.832031 7.167969 16 16 16h24v192c0 17.648438 14.351562 32 32 32zm176-32h-176v-192h176zm-120-320h64v32h-64zm-96.015625 64h256.015625v32h-256.007812zm0 0"/><path d="m200 320c8.832031 0 16-7.167969 16-16v-96c0-8.832031-7.167969-16-16-16s-16 7.167969-16 16v96c0 8.832031 7.167969 16 16 16zm0 0"/><path d="m120 320c8.832031 0 16-7.167969 16-16v-96c0-8.832031-7.167969-16-16-16s-16 7.167969-16 16v96c0 8.832031 7.167969 16 16 16zm0 0"/>
	</symbol>
		
</svg>

