<svg viewBox="0 0 91 57" fill="none" xmlns="http://www.w3.org/2000/svg">
	<path fill-rule="evenodd" clip-rule="evenodd" d="M0 28H8V57H0V28ZM17 28V36L10 36V28H17ZM27 28H19V57H27V28Z" fill="#133C8B"></path>
	<path fill-rule="evenodd" clip-rule="evenodd" d="M63 28H71V38L81 28H90L71 48V57H63V28ZM74 47L79 42L90.5 57H81.5L74 47Z" fill="#133C8B"></path>
	<path fill-rule="evenodd" clip-rule="evenodd" d="M44.5 27.5L40 35L46.2728 47H44.5L41 54H49.9318L51.5 57H60.5L44.5 27.5ZM39 37L43.2399 45.3504L37.5 57H28.5L39 37Z" fill="#E40613"></path>
	<path fill-rule="evenodd" clip-rule="evenodd" d="M49.7465 0H41.2303V6.03969C39.3681 6.34636 37.5686 6.83953 35.8519 7.49938L32.9722 2.51157L25.597 6.76964L28.4718 11.7489C26.9295 12.9891 25.5235 14.3918 24.2796 15.931L19.2581 13.0318L15 20.407L20.012 23.3007C19.9223 23.5323 19.8357 23.7654 19.7521 24H20H26.9254H29.5922C32.7371 18.3596 38.9053 14.5263 46 14.5263C53.0947 14.5263 59.2629 18.3596 62.4078 24H64.0514H71.7403H72C71.9029 23.7235 71.8013 23.4491 71.6951 23.1767L76.4924 20.407L72.2343 13.0318L67.3492 15.8523C66.0728 14.3279 64.6252 12.943 63.0345 11.7249L65.8954 6.76965L58.5202 2.51159L55.6405 7.49939C53.7658 6.77882 51.7925 6.25702 49.7465 5.9598V0Z" fill="#E40613"></path>
</svg>